<svg xmlns="http://www.w3.org/2000/svg" viewBox="0 0 215.16 215.16"><defs><style>.cls-1{fill:#fefdfe;}.cls-2{fill:#e0004d;}</style></defs><title>Recurso 3logo-white</title><g id="Capa_2" data-name="Capa 2"><g id="Capa_1-2" data-name="Capa 1"><rect class="cls-1" width="215.16" height="215.16" rx="14.9"/><path class="cls-2" d="M154,88A39.58,39.58,0,0,1,143,115.22a26.53,26.53,0,0,0-7.62,18.09v2a3.34,3.34,0,0,1-1.24,2.55v.2c0,10.71-1.78,19.4-4,19.4h-1.8c0,8.58-1.54,15.47-3.4,15.47H96.78c-1.86,0-3.36-6.89-3.4-15.47h-1.8c-2.19,0-4-8.69-4-19.4v-.21a3.32,3.32,0,0,1-1.22-2.54v-2.47a25,25,0,0,0-7.31-17.29A39.58,39.58,0,0,1,67.83,88c0-22.58,19.27-40.87,43.06-40.87S154,65.43,154,88Z"/><path d="M111.63,172.59a88.87,88.87,0,0,1-11.4-.88,36.22,36.22,0,0,1-4.42.34c-5.61,0-6.51-2.37-6.53-3.81v-.11c0-3.76,5.33-4.62,7.07-4.9,5.46-.89,12.79-.54,15.68-.34,1.3.08,2.44.18,3.45.27l.92-.44c4.66-2.34,6.33-4.48,6.33-5.7s-1.44-2.56-4-3.69c-9.67,2.53-21.92,2.39-22.76,2.37-14.13-.22-14.13-2.94-14.13-4.25A3.67,3.67,0,0,1,84,148.24c5.56-3.2,24.67-2.9,35,.91a26,26,0,0,0,4-1.57c1.53-.78,3.38-2,3.43-3.62.07-2.16-2.72-3.91-5.08-5l-.08,0c-1.24.31-2.62.62-4.17.93C106.78,142,85.92,144.51,81,139a4.78,4.78,0,0,1-.9-4.86.75.75,0,0,1,0-.16c-1.38-1.83-1.44-4.18-1.51-6.65a29.91,29.91,0,0,0-.46-5.18c-.55-2.72-2.93-4.86-5.94-7.56-5.11-4.59-11.47-10.3-12.68-22.37-2.77-27.67,11-45.44,39.68-51.41,8.15-1.69,25.33.33,38.06,10.11,9.43,7.25,14.78,17.57,15.46,29.84,1,18-6.37,26.25-12.29,32.87-2.74,3.06-5.1,5.7-6.45,8.9a14.27,14.27,0,0,0-.84,4.92,22.09,22.09,0,0,1-1,6.09c-.22.67-.7,2.1-5.6,3.86,2.42,1.77,3.93,4,3.85,6.72-.11,3.43-2.84,5.84-6.71,7.55a6.73,6.73,0,0,1,3,5.41c0,2.68-2.08,5.14-5.2,7.25a2,2,0,0,1,1.38,1.4,4.25,4.25,0,0,1-.76,4.32C120.44,171.94,116.36,172.59,111.63,172.59Zm4.5-5.38c-1.1.49-2.26.95-3.43,1.38,3.21,0,5.42-.35,6.2-1C118.2,167.49,117.25,167.34,116.13,167.21Zm-19.34-.06c1.18.19,2.34.36,3.46.51,1.57-.23,3.3-.57,5.1-1A59.23,59.23,0,0,0,96.79,167.15Zm-9.32-16.08c4.32.83,13.89,1,22.59-.1C101.49,149.57,91.57,149.91,87.47,151.07Zm-3.35-14.62a3.42,3.42,0,0,0,.53.36c3.67,2.07,12.56,1.9,21.4.81a1.87,1.87,0,0,1-.43-1c0-.18-.11-.76-.24-1.69-1.14-.14-2.27-.25-3.38-.35a8.93,8.93,0,0,1-5,2.11C90.91,137.28,86.87,137.22,84.12,136.45Zm25.38-.89c0,.31.07.48.07.51a2,2,0,0,1-.14,1.09c1.47-.22,2.93-.47,4.34-.73C112.38,136.1,111,135.81,109.5,135.56Zm-.54-4.09,1.68.28a57.27,57.27,0,0,1,11,3c3.53-.93,6.07-1.87,6.83-2.64a18.83,18.83,0,0,0,.71-4.89,18,18,0,0,1,1.15-6.24c1.61-3.82,4.31-6.83,7.16-10,5.71-6.38,12.18-13.61,11.27-30-.62-11.23-5.3-20.28-13.9-26.89-11.72-9-27.41-10.89-34.8-9.36C73.25,50.25,61,66.1,63.53,91.78c1,10.53,6.53,15.45,11.37,19.79,3.28,3,6.38,5.73,7.19,9.76a33.34,33.34,0,0,1,.54,5.85c.06,2.18.13,3.55.71,4.36,4-1.39,10.93-1.42,17.1-1a15,15,0,0,0,2.09-3.27,31.53,31.53,0,0,0,1.47-3.65c-1.52-14-3.21-36.16-.75-49.66.33-1.83,1-5.24,3.52-5,2,.19,3,2.39,3.82,8.75a137,137,0,0,1,.93,16.58c0,7.19-.47,20-3.45,29.65C108.4,126.9,108.71,129.47,109,131.47Zm-2.33-53c-1,8.92-.63,20.66.14,31.2A153.64,153.64,0,0,0,106.63,78.5Z"/></g></g></svg>