<svg xmlns="http://www.w3.org/2000/svg" viewBox="0 0 519.14 68.97"><defs><style>.cls-1{fill:#e0004d;}</style></defs><title>Recurso 2innovatec</title><g id="Capa_2" data-name="Capa 2"><g id="Capa_1-2" data-name="Capa 1"><path class="cls-1" d="M207.25,25A19.07,19.07,0,0,1,202,38.17a12.86,12.86,0,0,0-3.68,8.73v1a1.63,1.63,0,0,1-.59,1.23v.09c0,5.17-.86,9.37-1.92,9.37h-.87c0,4.14-.74,7.47-1.64,7.47H179.65c-.9,0-1.62-3.33-1.64-7.47h-.87c-1.06,0-1.91-4.2-1.91-9.37v-.1a1.57,1.57,0,0,1-.6-1.22v-1.2a12.06,12.06,0,0,0-3.52-8.34A19.11,19.11,0,0,1,165.67,25c0-10.9,9.31-19.73,20.79-19.73S207.25,14.14,207.25,25Z"/><path d="M186.79,66a41.7,41.7,0,0,1-5.47-.42,18.08,18.08,0,0,1-2.14.17c-2.83,0-3.29-1.23-3.3-2v-.06c0-1.94,2.67-2.37,3.54-2.51A38.65,38.65,0,0,1,187,61l1.63.13c.31-.14.6-.29.89-.45,1.83-1,2.48-1.87,2.49-2.36s-.64-1.1-1.76-1.6a47.37,47.37,0,0,1-11,1.12c-7-.11-7-1.47-7-2.21A1.92,1.92,0,0,1,173.41,54c2.69-1.55,11.93-1.42,17,.41a11.62,11.62,0,0,0,2-.79c.65-.35,1.43-.9,1.45-1.56,0-.94-1.29-1.74-2.09-2.14l-.25-.12c-1.49.37-3.12.68-4.63.92-2.14.34-9.43,1.35-13.13.12-2.89-1-2.47-3-2.27-3.58h0a5.63,5.63,0,0,1-.71-3.24,15.81,15.81,0,0,0-.22-2.47c-.26-1.27-1.39-2.28-2.82-3.57-2.49-2.23-5.58-5-6.17-10.9-1.35-13.44,5.32-22.08,19.27-25,4-.82,12.32.16,18.5,4.91a19.09,19.09,0,0,1,7.52,14.52c.49,8.76-3.09,12.76-6,16a16,16,0,0,0-3.09,4.25,6.93,6.93,0,0,0-.39,2.32,11.17,11.17,0,0,1-.47,3c-.24.71-1.21,1.33-2.55,1.85a3.87,3.87,0,0,1,1.7,3.21C196,53.77,194.76,55,193,55.8a3.32,3.32,0,0,1,1.29,2.56c0,1.31-.92,2.48-2.33,3.49a1,1,0,0,1,.48.64,2.2,2.2,0,0,1-.4,2.23C191.16,65.69,189.13,66,186.79,66Zm2.26-2.57-.78.33a6.44,6.44,0,0,0,1.53-.23Zm-8.21-.17.51.07c.28,0,.58-.09.87-.15C181.74,63.21,181.27,63.23,180.84,63.27Zm-4.91-7.83a44,44,0,0,0,9,0A32.74,32.74,0,0,0,175.93,55.44Zm-1.29-6.66c2,.62,5.59.51,9.22.07a.85.85,0,0,1-.09-.31c0-.08-.05-.31-.1-.68-.5-.06-1-.11-1.49-.15a4.33,4.33,0,0,1-2.39,1A25.19,25.19,0,0,1,174.64,48.78ZM186,48.2h0a1.36,1.36,0,0,1,0,.35l1-.17Zm-.3-2.31.7.11a27.89,27.89,0,0,1,5.27,1.42,9.83,9.83,0,0,0,3.17-1.2,9.44,9.44,0,0,0,.33-2.28,8.61,8.61,0,0,1,.56-3.06A17.77,17.77,0,0,1,199.19,36c2.73-3.06,5.84-6.53,5.4-14.37a16.74,16.74,0,0,0-6.65-12.87c-5.62-4.32-13.14-5.23-16.68-4.49-12.85,2.67-18.74,10.26-17.51,22.57.5,5,3.12,7.38,5.44,9.46,1.6,1.44,3.12,2.8,3.52,4.79a16.27,16.27,0,0,1,.26,2.85,4.8,4.8,0,0,0,.26,1.93c2-.66,5.27-.65,8.12-.45a6.56,6.56,0,0,0,.87-1.35,13.34,13.34,0,0,0,.76-1.86c-.73-6.79-1.54-17.46-.36-24,.17-.93.49-2.68,1.87-2.54,1.07.1,1.57,1.2,2,4.35a67.43,67.43,0,0,1,.45,8c0,3.47-.23,9.62-1.67,14.3C185.4,43.74,185.55,44.94,185.67,45.89Zm-1.26-23.82a88.37,88.37,0,0,0,.08,11.36A79.84,79.84,0,0,0,184.41,22.07Z"/><path d="M11.07.73V68.24H0V.73Z"/><path d="M81.11,68.29H70L36.72,17.87V68.29H25.64V.68H36.72L70,51V.68H81.11Z"/><path d="M151.14,68.29H140.07L106.75,17.87V68.29H95.68V.68h11.07L140.07,51V.68h11.07Z"/><path d="M274.36.73,249,68.24H236.19L210.74.73h11.85l20,56.14L262.71.73Z"/><path d="M324.29,54.49H296l-4.85,13.8H279.61L303.79.68h12.83L340.8,68.29H329.15Zm-3.11-9-11-31.38L299.13,45.46Z"/><path d="M394.91.73v9h-18V68.24H365.86V9.76H347.8v-9Z"/><path d="M417.15,9.71V29.53h23.31v9H417.15V59.25h26.23v9h-37.3V.68h37.3v9Z"/><path d="M457.9,16.71A32.79,32.79,0,0,1,470.43,4.42,36.84,36.84,0,0,1,507,5.29a30.16,30.16,0,0,1,12.19,15h-13.3a17.8,17.8,0,0,0-7.29-8,21.6,21.6,0,0,0-10.78-2.63,23.65,23.65,0,0,0-11.95,3,21,21,0,0,0-8.21,8.65,27.85,27.85,0,0,0-3,13.11,27.87,27.87,0,0,0,3,13.12,21.33,21.33,0,0,0,8.21,8.69,23.28,23.28,0,0,0,11.95,3.06,21.6,21.6,0,0,0,10.78-2.62,17.88,17.88,0,0,0,7.29-8h13.3a29.87,29.87,0,0,1-12.19,15A35.42,35.42,0,0,1,487.77,69a35,35,0,0,1-17.39-4.42A32.94,32.94,0,0,1,457.9,52.26a34.45,34.45,0,0,1-4.61-17.78A34.42,34.42,0,0,1,457.9,16.71Z"/></g></g></svg>