<?xml version="1.0" encoding="utf-8"?>
<!-- Generator: Adobe Illustrator 24.0.2, SVG Export Plug-In . SVG Version: 6.00 Build 0)  -->
<svg version="1.1" id="Capa_1" shape-rendering="crispEdges"
	 xmlns="http://www.w3.org/2000/svg" xmlns:xlink="http://www.w3.org/1999/xlink" x="0px" y="0px" viewBox="0 0 250 250"
	 style="enable-background:new 0 0 250 250;" xml:space="preserve">
<style type="text/css">
	.st0{stroke:#E0004D;stroke-width:8.6207;stroke-miterlimit:34.4828;}
</style>
<path class="st0" d="M34.5,38.8h60.3 M112.1,38.8h8.6 M137.9,38.8h8.6 M155.2,38.8h60.3 M34.5,47.4h8.6 M86.2,47.4h8.6 M103.4,47.4
	h17.2 M137.9,47.4h8.6 M155.2,47.4h8.6 M206.9,47.4h8.6 M34.5,56h8.6 M51.7,56h25.9 M86.2,56h8.6 M120.7,56h8.6 M155.2,56h8.6
	 M172.4,56h25.9 M206.9,56h8.6 M34.5,64.7h8.6 M51.7,64.7h25.9 M86.2,64.7h8.6 M112.1,64.7h17.2 M155.2,64.7h8.6 M172.4,64.7h25.9
	 M206.9,64.7h8.6 M34.5,73.3h8.6 M51.7,73.3h25.9 M86.2,73.3h8.6 M103.4,73.3h43.1 M155.2,73.3h8.6 M172.4,73.3h25.9 M206.9,73.3
	h8.6 M34.5,81.9h8.6 M86.2,81.9h8.6 M120.7,81.9h17.2 M155.2,81.9h8.6 M206.9,81.9h8.6 M34.5,90.5h60.3 M103.4,90.5h8.6 M120.7,90.5
	h8.6 M137.9,90.5h8.6 M155.2,90.5h60.3 M120.7,99.1h8.6 M34.5,107.8h8.6 M51.7,107.8h8.6 M69,107.8h8.6 M86.2,107.8h8.6
	 M112.1,107.8h8.6 M137.9,107.8h8.6 M172.4,107.8h8.6 M198.3,107.8h8.6 M43.1,116.4h43.1 M112.1,116.4h25.9 M198.3,116.4h17.2
	 M43.1,125h8.6 M60.3,125H69 M77.6,125h17.2 M112.1,125h8.6 M129.3,125h8.6 M146.6,125h25.9 M181,125h34.5 M69,133.6h17.2
	 M94.8,133.6h8.6 M112.1,133.6h34.5 M155.2,133.6H181 M198.3,133.6h8.6 M43.1,142.2H69 M86.2,142.2h25.9 M120.7,142.2h17.2
	 M146.6,142.2h17.2 M172.4,142.2h8.6 M198.3,142.2h17.2 M103.4,150.9h8.6 M120.7,150.9h8.6 M146.6,150.9h17.2 M172.4,150.9h8.6
	 M189.7,150.9h8.6 M206.9,150.9h8.6 M34.5,159.5h60.3 M112.1,159.5h8.6 M137.9,159.5h8.6 M172.4,159.5h8.6 M189.7,159.5h25.9
	 M34.5,168.1h8.6 M86.2,168.1h8.6 M112.1,168.1h17.2 M146.6,168.1h43.1 M198.3,168.1h8.6 M34.5,176.7h8.6 M51.7,176.7h25.9
	 M86.2,176.7h8.6 M103.4,176.7h8.6 M137.9,176.7h25.9 M181,176.7h8.6 M198.3,176.7h17.2 M34.5,185.3h8.6 M51.7,185.3h25.9
	 M86.2,185.3h8.6 M129.3,185.3h8.6 M163.8,185.3h43.1 M34.5,194h8.6 M51.7,194h25.9 M86.2,194h8.6 M103.4,194h34.5 M172.4,194h8.6
	 M206.9,194h8.6 M34.5,202.6h8.6 M86.2,202.6h8.6 M129.3,202.6h25.9 M163.8,202.6h8.6 M181,202.6h8.6 M198.3,202.6h8.6 M34.5,211.2
	h60.3 M103.4,211.2h8.6 M120.7,211.2h17.2 M155.2,211.2h8.6 M172.4,211.2h43.1"/>
</svg>
