<svg xmlns="http://www.w3.org/2000/svg" xmlns:xlink="http://www.w3.org/1999/xlink" viewBox="0 0 150.98 299.85"><defs><style>.cls-1{fill:#0c101a;}.cls-2{fill:#2d354f;}.cls-23,.cls-24,.cls-3{fill:#1a1f2e;}.cls-4{fill:#fff;}.cls-5{fill:#3f4c70;}.cls-6{fill:#e7ecf2;}.cls-7{fill:url(#Degradado_sin_nombre_2);}.cls-8{font-size:4.41px;}.cls-15,.cls-18,.cls-8{fill:#454b60;}.cls-18,.cls-24,.cls-8{font-family:Poppins-Light, Poppins;font-weight:300;}.cls-25,.cls-9{fill:#ff5a76;}.cls-10,.cls-11,.cls-14,.cls-16{fill:none;}.cls-10,.cls-11{stroke:#454b60;}.cls-10,.cls-14{stroke-miterlimit:10;}.cls-10,.cls-11,.cls-16{stroke-width:0.77px;}.cls-11,.cls-16{stroke-linejoin:round;}.cls-12{fill:#cad2db;}.cls-13{fill:#5c8eff;}.cls-14{stroke:#dce0ed;stroke-width:0.23px;}.cls-16{stroke:#1a1f2e;stroke-linecap:round;}.cls-17{fill:url(#Degradado_sin_nombre_2-2);}.cls-18{font-size:3.51px;}.cls-19{fill:url(#Degradado_sin_nombre_2-3);}.cls-20{fill:url(#Degradado_sin_nombre_2-4);}.cls-21{fill:url(#Degradado_sin_nombre_2-5);}.cls-22{fill:#3797f2;}.cls-23,.cls-25{fill-rule:evenodd;}.cls-24{font-size:3.09px;}</style><linearGradient id="Degradado_sin_nombre_2" x1="11.38" y1="102.33" x2="34.96" y2="80.48" gradientUnits="userSpaceOnUse"><stop offset="0" stop-color="#fae089"/><stop offset="0.21" stop-color="#fbba45"/><stop offset="0.38" stop-color="#f65274"/><stop offset="0.52" stop-color="#d43691"/><stop offset="0.74" stop-color="#8e39cd"/><stop offset="1" stop-color="#5b4fe8"/></linearGradient><linearGradient id="Degradado_sin_nombre_2-2" x1="42.41" y1="70.54" x2="91.15" y2="25.38" xlink:href="#Degradado_sin_nombre_2"/><linearGradient id="Degradado_sin_nombre_2-3" x1="10.12" y1="70.54" x2="58.86" y2="25.38" xlink:href="#Degradado_sin_nombre_2"/><linearGradient id="Degradado_sin_nombre_2-4" x1="74.71" y1="70.54" x2="123.44" y2="25.38" xlink:href="#Degradado_sin_nombre_2"/><linearGradient id="Degradado_sin_nombre_2-5" x1="107" y1="70.54" x2="155.74" y2="25.38" xlink:href="#Degradado_sin_nombre_2"/></defs><title>Recurso 2</title><g id="Capa_2" data-name="Capa 2"><g id="OBJECTS"><rect class="cls-1" x="146.42" y="67.89" width="4.57" height="32.73" rx="0.77"/><rect class="cls-1" y="40.37" width="4.57" height="10.45" rx="0.77"/><rect class="cls-1" y="57.45" width="4.57" height="20.07" rx="0.77"/><rect class="cls-1" y="82.16" width="4.57" height="20.07" rx="0.77"/><rect class="cls-2" x="1.14" y="0.92" width="148.7" height="298.94" rx="17.69"/><rect class="cls-3" x="1.14" width="148.7" height="298.94" rx="17.69"/><path class="cls-4" d="M132.15,6.92H114.73a3.39,3.39,0,0,0-3.39,3.38v2.2a8,8,0,0,1-8,8H47.6a8,8,0,0,1-8-8V10.3a3.39,3.39,0,0,0-3.38-3.38H18.83A10.78,10.78,0,0,0,8.06,17.69V281.25A10.78,10.78,0,0,0,18.83,292H132.15a10.78,10.78,0,0,0,10.77-10.76V17.69A10.78,10.78,0,0,0,132.15,6.92Z"/><path class="cls-5" d="M84,12a1.51,1.51,0,0,1-1.5,1.51h-22A1.51,1.51,0,0,1,59,12h0a1.51,1.51,0,0,1,1.5-1.51h22A1.51,1.51,0,0,1,84,12Z"/><path class="cls-5" d="M92,12a1.51,1.51,0,1,1-1.51-1.51A1.52,1.52,0,0,1,92,12Z"/><path class="cls-1" d="M84,11.83a1.5,1.5,0,0,1-1.5,1.51h-22A1.5,1.5,0,0,1,59,11.83h0a1.5,1.5,0,0,1,1.5-1.5h22a1.5,1.5,0,0,1,1.5,1.5Z"/><path class="cls-1" d="M92,11.83a1.51,1.51,0,1,1-1.51-1.5A1.51,1.51,0,0,1,92,11.83Z"/><rect class="cls-4" x="8.06" y="79.09" width="134.85" height="180.4"/><rect class="cls-6" x="8.06" y="105.2" width="134.85" height="134.67"/><path class="cls-6" d="M24.5,95.35a5.6,5.6,0,1,1-5.6-5.59A5.59,5.59,0,0,1,24.5,95.35Z"/><path class="cls-7" d="M18.9,102.13a6.78,6.78,0,1,1,6.78-6.78A6.78,6.78,0,0,1,18.9,102.13Zm0-12.78a6,6,0,1,0,6,6A6,6,0,0,0,18.9,89.35Z"/><text class="cls-8" transform="translate(28.44 96.86)">Tu marca</text><path class="cls-9" d="M21,246a2.2,2.2,0,0,0-1.21-.37,2.37,2.37,0,0,0-1.9,1,2.34,2.34,0,0,0-1.89-1,2.22,2.22,0,0,0-1.21.37,2.91,2.91,0,0,0-.89,3.72c.55,1.06,2.86,2.9,3.69,3.54a.5.5,0,0,0,.3.11.51.51,0,0,0,.31-.11c.83-.64,3.14-2.48,3.69-3.54A2.91,2.91,0,0,0,21,246Z"/><path class="cls-10" d="M36,251.29a.43.43,0,0,1,0-.25,3.61,3.61,0,0,0,.27-2.51,3.52,3.52,0,0,0-2.5-2.56,3.74,3.74,0,0,0-1-.13A3.59,3.59,0,0,0,30,247.23a3.66,3.66,0,0,0-.63,3.17A3.92,3.92,0,0,0,32,252.94a3.64,3.64,0,0,0,2.59-.33.37.37,0,0,1,.25,0l1.55.41a.12.12,0,0,0,.08-.05.14.14,0,0,0,0-.11Z"/><path class="cls-11" d="M136,246.28h-5.6a.2.2,0,0,0-.19.19v6.06a.19.19,0,0,0,.11.18.18.18,0,0,0,.21,0l2.67-2.34,2.67,2.34a.18.18,0,0,0,.21,0,.2.2,0,0,0,.12-.18v-6.06A.2.2,0,0,0,136,246.28Z"/><path class="cls-12" d="M67.73,249.78a.92.92,0,1,1-.91-.92A.92.92,0,0,1,67.73,249.78Z"/><path class="cls-12" d="M71.85,249.78a.92.92,0,1,1-.92-.92A.92.92,0,0,1,71.85,249.78Z"/><path class="cls-13" d="M76,249.78a.92.92,0,1,1-.92-.92A.92.92,0,0,1,76,249.78Z"/><path class="cls-12" d="M80.08,249.78a.92.92,0,1,1-.91-.92A.92.92,0,0,1,80.08,249.78Z"/><path class="cls-12" d="M84.2,249.78a.92.92,0,1,1-.92-.92A.92.92,0,0,1,84.2,249.78Z"/><path class="cls-10" d="M51.28,246.05H43.87a.18.18,0,0,0-.12.32l2.92,2.48v0l.72,3.93a.17.17,0,0,0,.14.15.19.19,0,0,0,.19-.09l3.71-6.55a.18.18,0,0,0-.16-.27Z"/><line class="cls-10" x1="51.44" y1="246.14" x2="46.68" y2="248.88"/><line class="cls-14" x1="8.06" y1="79.09" x2="142.92" y2="79.09"/><path class="cls-15" d="M134.64,93.14a.63.63,0,0,1-.63.64.64.64,0,1,1,0-1.27A.63.63,0,0,1,134.64,93.14Z"/><path class="cls-15" d="M134.64,95.36A.63.63,0,0,1,134,96a.64.64,0,1,1,.63-.63Z"/><path class="cls-15" d="M134.64,97.57a.63.63,0,0,1-.63.63.64.64,0,1,1,.63-.63Z"/><line class="cls-14" x1="8.06" y1="39.64" x2="142.92" y2="39.64"/><path class="cls-3" d="M22.19,25.56a3.82,3.82,0,0,0-2,2.54c-.36,1.55,1.14,2.2,1.27,2s-.27-.34-.36-1.14a3.38,3.38,0,0,1,1-2.71c.11-.09.11,0,.11.28,0,.44,0,4.34,0,5.16A7.43,7.43,0,0,1,22,33.47c-.09.35-.22.59-.12.68s.6-.14.88-.53A2.94,2.94,0,0,0,23.26,32c0-.73,0-1.9,0-2.56s0-2.39,0-3.47C23.27,25.69,22.54,25.42,22.19,25.56Z"/><path class="cls-3" d="M60.16,31.35c-.12,0-.17.13-.22.33-.15.73-.32.89-.53.89s-.45-.36-.51-1.07a26.22,26.22,0,0,1,0-2.63c0-.21,0-.42-.61-.62-.24-.09-.6-.22-.78.2A11.35,11.35,0,0,0,56.79,31s0,0,0,0c0-.31-.09-.88-.1-2.06a.6.6,0,0,0-.31-.59c-.16-.11-.67-.29-.85-.07A4.56,4.56,0,0,0,55,29.5c-.16.46-.26.78-.26.78V28.54a.24.24,0,0,0-.16-.25,3.31,3.31,0,0,0-.64-.13c-.17,0-.22.1-.22.24s0,1.66,0,2.8v.17c-.1.52-.41,1.24-.75,1.24s-.5-.3-.5-1.67c0-.8,0-1.14,0-1.72,0-.33,0-.59,0-.65s-.31-.26-.45-.3a1.87,1.87,0,0,0-.37,0,.23.23,0,0,0-.24.23c0,.06,0,.19,0,.19a1.36,1.36,0,0,0-.66-.53,1.25,1.25,0,0,0-1.45.55,3.35,3.35,0,0,0-.59,1.68,5.14,5.14,0,0,0,.06,1.53c-.12.52-.34.73-.58.73S47.61,32,47.64,31a8.72,8.72,0,0,1,.3-1.78.56.56,0,0,0-.12-.57.68.68,0,0,0-.7-.11l-.93.17a1.42,1.42,0,0,0,0-.22c.09-.73-.7-.67-.95-.44a.92.92,0,0,0-.29.6.7.7,0,0,0,.31.68,6.63,6.63,0,0,1-.74,1.85,7.75,7.75,0,0,1-.46.73V31.7c0-1.2,0-2.14,0-2.48s0-.58,0-.64-.07-.18-.23-.24a2.25,2.25,0,0,0-.48-.11c-.21,0-.34.1-.34.24v.18a1.34,1.34,0,0,0-.65-.53,1.25,1.25,0,0,0-1.45.55,3.6,3.6,0,0,0-.59,1.68,4.83,4.83,0,0,0,0,1.44c-.08.4-.32.82-.58.82s-.53-.3-.53-1.67c0-.8,0-1.14,0-1.72,0-.33,0-.59,0-.65s-.31-.26-.45-.3a2,2,0,0,0-.38,0,.24.24,0,0,0-.22.22v.2a1.34,1.34,0,0,0-.65-.53,1.25,1.25,0,0,0-1.45.55,3.11,3.11,0,0,0-.59,1.67,4.72,4.72,0,0,0,0,.73c-.1.64-.57,1.39-1,1.39-.23,0-.44-.43-.44-1.36,0-1.23.08-3,.09-3.15h.58c.24,0,.46,0,.78,0,.16,0,.31-.58.15-.65a4.39,4.39,0,0,0-.82-.07c-.18,0-.67,0-.67,0s0-1.16,0-1.28-.12-.16-.2-.19a2.57,2.57,0,0,0-.54-.16c-.27-.05-.39,0-.42.23s-.05,1.36-.05,1.36l-1.08,0c-.18,0-.38.8-.13.8l1.15,0s0,1.78,0,2.33v.16a2.63,2.63,0,0,1-.84,1.5,1.46,1.46,0,0,0-.67-1.53l-1-.75a2.37,2.37,0,0,0,.46-.73c.16-.34.16-.74-.21-.82a1.12,1.12,0,0,0-1.29.8.93.93,0,0,0,.17.95l.06.07c-.14.27-.34.63-.5.92-.46.78-.8,1.41-1.06,1.41S28,31.6,28,31s0-1.27.07-2.07a.59.59,0,0,0-.35-.54,1.42,1.42,0,0,0-.58-.25c-.25,0-1,0-1.63,2l-.26.69,0-2.34a.17.17,0,0,0-.1-.15,1.69,1.69,0,0,0-.69-.19.17.17,0,0,0-.19.18l0,3.67a7.34,7.34,0,0,0,0,.75.88.88,0,0,0,.13.32.44.44,0,0,0,.22.15c.1,0,.64.08.66-.12a8.57,8.57,0,0,1,.32-1.5,6.09,6.09,0,0,1,1.27-2.55c.05-.05.1-.05.1,0,0,.33,0,1.18-.08,1.89-.07,1.92.28,2.27.78,2.27s.91-.38,1.49-1.34l1-1.6c.17.16.37.33.56.52a1.25,1.25,0,0,1,.51,1.23c-.08.3-.36.6-.87.31-.15-.09-.21-.16-.36-.25a.26.26,0,0,0-.28,0,1.06,1.06,0,0,0-.36.55c-.06.22.16.34.39.44a3,3,0,0,0,.89.18c1,0,1.89-.51,2.47-1.91.11,1.21.55,1.89,1.33,1.89.51,0,1-.67,1.26-1.33a2.23,2.23,0,0,0,.28.7,1.37,1.37,0,0,0,2.34-.06,1.89,1.89,0,0,0,.21-.33,1.09,1.09,0,0,0,1,1,1.16,1.16,0,0,0,1.08-.82,1.18,1.18,0,0,0,.11.19,1.36,1.36,0,0,0,2.33-.06l.07-.1,0,.5-.53.49c-.9.82-1.58,1.44-1.63,2.17a1.21,1.21,0,0,0,1.25,1.31,1.59,1.59,0,0,0,1.44-.75A4.29,4.29,0,0,0,44.12,34c0-.35,0-.8,0-1.27a10.39,10.39,0,0,0,1-1.37,9.75,9.75,0,0,0,.93-2,6.85,6.85,0,0,0,.69,0c.11,0,.15,0,.13.1a5.75,5.75,0,0,0-.07,2.81,1.37,1.37,0,0,0,1.21,1,1.2,1.2,0,0,0,1-.77.64.64,0,0,0,.08.14,1.36,1.36,0,0,0,2.33-.06,1.93,1.93,0,0,0,.21-.33,1.14,1.14,0,0,0,1.09,1c.36,0,.71-.15,1-.81a2.91,2.91,0,0,0,.06.61s.11.1.19.13a1.61,1.61,0,0,0,.8,0c.08,0,.15-.09.16-.27a10.62,10.62,0,0,1,.16-1.86,5.41,5.41,0,0,1,.57-1.57c.06-.1.12-.12.13,0a17,17,0,0,0,.11,1.8,3.74,3.74,0,0,0,.23,1.18.64.64,0,0,0,.65.37c.13,0,.4,0,.37-.26a7.19,7.19,0,0,1,.25-1.76,8.59,8.59,0,0,1,.5-1.43c0-.08,0,0,0,0a12.77,12.77,0,0,0,.12,2.66c.24,1.06.94,1.18,1.19,1.18.52,0,.95-.4,1.09-1.44C60.36,31.55,60.31,31.35,60.16,31.35Zm-21.87-.64A3.49,3.49,0,0,1,38,32.06c-.32.61-.94.8-1.21-.08a4.68,4.68,0,0,1-.05-2c.13-.69.43-1.19.9-1.14S38.35,29.56,38.29,30.71Zm4.77,0a3.78,3.78,0,0,1-.31,1.34c-.3.61-.94.8-1.21-.08a4.4,4.4,0,0,1,0-1.87c.11-.64.39-1.23.9-1.23S43.13,29.42,43.06,30.72Zm.13,3.56a3.06,3.06,0,0,1-.48,2,.57.57,0,0,1-.94-.61,4.37,4.37,0,0,1,1.42-2Zm8.23-3.56a3.26,3.26,0,0,1-.31,1.34c-.3.61-.93.8-1.2-.08a4.82,4.82,0,0,1,0-1.95c.11-.68.41-1.2.9-1.15S51.48,29.56,51.42,30.72Z"/><path class="cls-16" d="M130.87,25.67a3.73,3.73,0,0,0-3.73,3.73,3.68,3.68,0,0,0,1.33,2.82l.09,1.2,1.1-.51a3.8,3.8,0,0,0,1.21.21,3.73,3.73,0,0,0,0-7.45Z"/><path class="cls-3" d="M133,28.74a.22.22,0,0,0-.31-.07,6.62,6.62,0,0,0-1,.83c-.36-.29-.74-.58-1.13-.84l-.07,0a.45.45,0,0,0-.61.11,8.91,8.91,0,0,0-1,1.57.19.19,0,0,0,0,.19.21.21,0,0,0,.28.06,7.3,7.3,0,0,0,1.05-.84,13.84,13.84,0,0,0,1.14.88l0,0a.47.47,0,0,0,.65-.11A7.72,7.72,0,0,0,133,29,.22.22,0,0,0,133,28.74Z"/><path class="cls-6" d="M70.14,56.13A12.17,12.17,0,1,1,58,44,12.17,12.17,0,0,1,70.14,56.13Z"/><path class="cls-17" d="M58,70.13a14,14,0,1,1,14-14A14,14,0,0,1,58,70.13Zm0-27.32A13.32,13.32,0,1,0,71.29,56.13,13.33,13.33,0,0,0,58,42.81Z"/><text class="cls-18" transform="translate(47.81 75.07)">@Producto1</text><path class="cls-6" d="M37.86,56.13A12.18,12.18,0,1,1,25.68,44,12.17,12.17,0,0,1,37.86,56.13Z"/><path class="cls-19" d="M25.68,70.13a14,14,0,1,1,14-14A14,14,0,0,1,25.68,70.13Zm0-27.32A13.32,13.32,0,1,0,39,56.13,13.33,13.33,0,0,0,25.68,42.81Z"/><text class="cls-18" transform="translate(16.79 75.07)">Tu historia</text><path class="cls-6" d="M102.44,56.13A12.18,12.18,0,1,1,90.26,44,12.17,12.17,0,0,1,102.44,56.13Z"/><path class="cls-20" d="M90.26,70.13a14,14,0,1,1,14-14A14,14,0,0,1,90.26,70.13Zm0-27.32a13.32,13.32,0,1,0,13.33,13.32A13.33,13.33,0,0,0,90.26,42.81Z"/><text class="cls-18" transform="translate(79.61 75.07)">@Producto2</text><path class="cls-6" d="M134.73,56.13A12.17,12.17,0,1,1,122.56,44,12.17,12.17,0,0,1,134.73,56.13Z"/><path class="cls-21" d="M122.56,70.13a14,14,0,1,1,14-14A14,14,0,0,1,122.56,70.13Zm0-27.32a13.32,13.32,0,1,0,13.32,13.32A13.33,13.33,0,0,0,122.56,42.81Z"/><text class="cls-18" transform="translate(111.89 75.07)">@Producto3</text><path class="cls-4" d="M37.73,64.32a3.82,3.82,0,1,1-3.82-3.82A3.82,3.82,0,0,1,37.73,64.32Z"/><path class="cls-22" d="M37.15,64.32a3.24,3.24,0,1,1-3.24-3.24A3.24,3.24,0,0,1,37.15,64.32Z"/><path class="cls-4" d="M35.34,64h-1.1v-1.1a.33.33,0,1,0-.66,0V64h-1.1a.33.33,0,0,0,0,.66h1.1v1.1a.33.33,0,0,0,.66,0v-1.1h1.1a.33.33,0,0,0,0-.66Z"/><path id="Battery_Icon_-_100_" data-name="Battery Icon - 100%" class="cls-23" d="M137,13.64a.55.55,0,0,1-.53.62V13C136.81,13,137,13.29,137,13.64Zm-.71-1.16v2.31h0a.54.54,0,0,1-.54.53H128.8a.53.53,0,0,1-.53-.53h0V12.48a.54.54,0,0,1,.53-.54h6.95A.54.54,0,0,1,136.29,12.48Zm-7.49-.36a.36.36,0,0,0-.35.36v2.31a.36.36,0,0,0,.35.36h6.95a.36.36,0,0,0,.36-.36V12.48a.36.36,0,0,0-.36-.36Zm-.17.36v2.31a.18.18,0,0,0,.17.18h4.25a.18.18,0,0,0,.18-.18V12.48a.18.18,0,0,0-.18-.18H128.8A.18.18,0,0,0,128.63,12.48Z"/><path id="Wi-Fi_Icon" data-name="Wi-Fi Icon" class="cls-3" d="M124.23,11.94a3.32,3.32,0,0,1,2.14.84l-.29.31a2.87,2.87,0,0,0-3.71,0l-.28-.32A3.37,3.37,0,0,1,124.23,11.94Zm0,1.11a2.25,2.25,0,0,1,1.42.53l-.31.33a1.79,1.79,0,0,0-1.11-.39,1.77,1.77,0,0,0-1.11.39l-.31-.33A2.23,2.23,0,0,1,124.23,13.05Zm0,1.09a1.12,1.12,0,0,1,.68.25l-.68.76-.69-.76A1.15,1.15,0,0,1,124.23,14.14Z"/><rect class="cls-3" x="118.82" y="11.94" width="0.58" height="3.21"/><rect class="cls-3" x="117.71" y="12.75" width="0.58" height="2.4"/><rect class="cls-3" x="116.61" y="13.57" width="0.58" height="1.59"/><rect class="cls-3" x="115.5" y="14.38" width="0.58" height="0.78"/><text class="cls-24" transform="translate(15.01 14.43)">19:21</text><path class="cls-3" d="M24.81,15.17a.1.1,0,0,1-.07,0,.12.12,0,0,1-.07-.11l0-.39a1.56,1.56,0,0,1-.5-1.14,1.55,1.55,0,1,1,1.54,1.55,1.39,1.39,0,0,1-.44-.07l-.36.17Z"/><path class="cls-4" d="M26.57,13.23a.09.09,0,0,0-.13,0,2.51,2.51,0,0,0-.44.35,5.46,5.46,0,0,0-.48-.36l0,0a.2.2,0,0,0-.26.05,4,4,0,0,0-.4.66.11.11,0,0,0,0,.08A.1.1,0,0,0,25,14a5.37,5.37,0,0,0,.45-.35c.15.13.31.25.47.37h0a.2.2,0,0,0,.27,0,3.46,3.46,0,0,0,.41-.66A.09.09,0,0,0,26.57,13.23Z"/><line class="cls-14" x1="8.06" y1="269.71" x2="142.92" y2="269.71"/><path class="cls-15" d="M52.89,284.23l-1.65-1.65a3.31,3.31,0,0,0-2.47-5.52,3.32,3.32,0,1,0,0,6.64,3.28,3.28,0,0,0,2.22-.87l1.65,1.65Zm-4.12-.88a3,3,0,1,1,3-3A3,3,0,0,1,48.77,283.35Z"/><path class="cls-15" d="M127.9,277.45a1.75,1.75,0,1,1-1.74,1.74,1.74,1.74,0,0,1,1.74-1.74m0-.35a2.1,2.1,0,1,0,2.1,2.09,2.1,2.1,0,0,0-2.1-2.09Z"/><path class="cls-15" d="M131.57,284.44a.18.18,0,0,1-.17-.18v-.48a1.45,1.45,0,0,0-1.44-1.45h-4.11a1.45,1.45,0,0,0-1.44,1.45v.48a.18.18,0,0,1-.17.18.18.18,0,0,1-.18-.18v-.48a1.79,1.79,0,0,1,1.79-1.79H130a1.79,1.79,0,0,1,1.79,1.79v.48A.18.18,0,0,1,131.57,284.44Z"/><path class="cls-15" d="M103.45,277.8a1.68,1.68,0,0,1,.89.26,2.09,2.09,0,0,1,.67,2.73,14.54,14.54,0,0,1-3.19,2.93.07.07,0,0,1-.06,0l-.06,0a14.44,14.44,0,0,1-3.18-2.93,2.09,2.09,0,0,1,.66-2.73,1.74,1.74,0,0,1,.9-.26,1.71,1.71,0,0,1,1.4.73l.28.38.28-.38a1.74,1.74,0,0,1,1.41-.73m0-.35a2.12,2.12,0,0,0-1.69.87,2.1,2.1,0,0,0-1.68-.87,2,2,0,0,0-1.08.31,2.43,2.43,0,0,0-.79,3.19,15.49,15.49,0,0,0,3.28,3.05.46.46,0,0,0,.27.09A.44.44,0,0,0,102,284a15.54,15.54,0,0,0,3.29-3.05,2.45,2.45,0,0,0-.79-3.19,2,2,0,0,0-1.08-.31Z"/><path class="cls-25" d="M102.48,286.5a.72.72,0,1,1-1.44,0,.72.72,0,1,1,1.44,0Z"/><path class="cls-15" d="M77.06,284.92H74a2.64,2.64,0,0,1-2.64-2.64v-3.11A2.65,2.65,0,0,1,74,276.53h3.11a2.64,2.64,0,0,1,2.64,2.64v3.11A2.64,2.64,0,0,1,77.06,284.92Zm-3.11-8a2.3,2.3,0,0,0-2.29,2.29v3.11A2.29,2.29,0,0,0,74,284.57h3.11a2.28,2.28,0,0,0,2.29-2.29v-3.11a2.29,2.29,0,0,0-2.29-2.29Z"/><polygon class="cls-15" points="77.43 280.55 75.68 280.55 75.68 278.81 75.33 278.81 75.33 280.55 73.58 280.55 73.58 280.9 75.33 280.9 75.33 282.65 75.68 282.65 75.68 280.9 77.43 280.9 77.43 280.55"/><path class="cls-15" d="M23.08,277.19a.47.47,0,0,0-.35.14l-3.24,3.25a.92.92,0,0,0-.26.63v2.61a.53.53,0,0,0,.53.53h2.09a.53.53,0,0,0,.53-.53v-1.57a.7.7,0,1,1,1.4,0v1.57a.53.53,0,0,0,.53.53h2.08a.53.53,0,0,0,.53-.53v-2.61a.91.91,0,0,0-.25-.63l-3.24-3.25a.47.47,0,0,0-.35-.14"/></g></g></svg>